<svg width="40" height="30" viewBox="0 0 40 30" fill="none" xmlns="http://www.w3.org/2000/svg">
<path d="M6.59265 16.7742C6.59265 20.2819 8.01656 23.6459 10.5511 26.1262C13.0857 28.6066 16.5233 30 20.1078 30C23.6922 30 27.1298 28.6066 29.6644 26.1262C32.199 23.6459 33.6229 20.2819 33.6229 16.7742C33.6229 13.2665 32.199 9.90244 29.6644 7.42212C27.1298 4.9418 23.6922 3.54837 20.1078 3.54837C16.5233 3.54837 13.0857 4.9418 10.5511 7.42212C8.01656 9.90244 6.59265 13.2665 6.59265 16.7742Z" fill="#17A09A"/>
<path d="M7.9113 26.129C5.60384 26.129 4.28529 25.4839 3.62601 24.5161C2.96674 23.2258 3.62601 20.9677 5.60384 18.3871C5.60384 18.0645 5.93347 18.0645 6.26311 18.3871C6.59275 18.3871 6.59275 18.7097 6.26311 19.0323C4.28529 21.2903 3.62601 22.9032 4.28529 24.1935C4.94456 25.4839 7.25202 25.8064 10.5484 25.1613C14.1744 24.5161 18.4597 22.9032 22.745 20.6452C27.0303 18.3871 30.6563 15.8064 33.2934 13.2258C35.6008 10.9677 36.5897 8.70967 35.9305 7.41935C35.2712 6.12902 32.9637 5.80644 29.3377 6.45161C29.0081 6.45161 29.0081 6.45161 28.6784 6.12903C28.6784 5.80645 28.6784 5.80644 29.0081 5.48386C32.9637 4.8387 35.6008 5.16128 36.2601 6.77419C37.249 8.38709 36.2601 10.6452 33.623 13.5484C30.9859 16.129 27.3599 19.0323 23.0746 21.2903C18.7893 23.5484 14.1744 25.1613 10.5484 25.8064C9.55948 26.129 8.57057 26.129 7.9113 26.129Z" fill="#DF4E38"/>
<path d="M39.2269 20.3226H36.5898C36.2601 20.3226 36.2601 20 36.2601 20L36.5898 19.6774H38.8972C39.2269 19.6774 39.2269 20 39.2269 20V20.3226Z" fill="#17A09A"/>
<path d="M37.9083 21.6129C37.5786 21.6129 37.5786 21.2903 37.5786 21.2903V18.7097C37.5786 18.3871 37.9083 18.3871 37.9083 18.3871C38.2379 18.3871 38.2379 18.7097 38.2379 18.7097V20.9677C38.2379 21.2903 38.2379 21.6129 37.9083 21.6129ZM2.96673 12.5806H0.659274C0.329637 12.5806 0 12.5806 0 12.2581C0 11.9355 0.329637 11.9355 0.329637 11.9355H2.6371C2.96673 11.9355 2.96673 12.2581 2.96673 12.2581C3.29637 12.5806 3.29637 12.5806 2.96673 12.5806Z" fill="#17A09A"/>
<path d="M1.64812 13.871C1.31848 13.871 1.31848 13.5484 1.31848 13.5484V10.9678C1.31848 10.6452 1.64812 10.6452 1.64812 10.6452C1.97776 10.6452 1.97776 10.9678 1.97776 10.9678V13.2258C2.30739 13.5484 1.97776 13.871 1.64812 13.871Z" fill="#17A09A"/>
<path d="M4.28522 16.4516H1.64812C1.31848 16.4516 1.31848 16.129 1.31848 16.129C1.31848 15.8065 1.64812 15.8065 1.64812 15.8065H3.95558C4.28522 15.8065 4.28522 16.129 4.28522 16.129C4.61485 16.129 4.28522 16.4516 4.28522 16.4516Z" fill="#17A09A"/>
<path d="M2.96672 17.4193C2.63708 17.4193 2.63708 17.0968 2.63708 17.0968V14.8387C2.63708 14.5161 2.96672 14.5161 2.96672 14.5161C3.29636 14.5161 3.29636 14.8387 3.29636 14.8387V17.0968C3.29636 17.0968 3.29636 17.4193 2.96672 17.4193Z" fill="#17A09A"/>
<path d="M29.6672 1.93548H27.3598C27.0301 1.93548 27.0302 1.61289 27.0302 1.61289C27.0302 1.29031 27.3598 1.29031 27.3598 1.29031H29.6672C29.9969 1.29031 29.9969 1.61289 29.9969 1.61289C30.3265 1.61289 29.9969 1.93548 29.6672 1.93548Z" fill="#17A09A"/>
<path d="M28.6784 2.90323C28.3488 2.90323 28.3488 2.58064 28.3488 2.58064V0.32258C28.3488 -3.12444e-07 28.6784 0 28.6784 0L29.008 0.32258V2.58064C29.008 2.90323 29.008 2.90323 28.6784 2.90323Z" fill="#17A09A"/>
<path d="M6.2631 29.0322C3.626 29.0322 1.31854 28.3871 0.659267 26.7742C-0.659282 24.5161 0.988904 20.6452 5.27419 16.4516C5.60382 16.129 5.60382 16.129 5.93346 16.4516C6.2631 16.7742 6.2631 16.7742 5.93346 17.0968C1.97782 20.9677 0.32963 24.1935 1.31854 26.129C3.29636 29.6774 13.5151 28.0645 23.7339 22.5806C33.9526 17.0968 40.875 9.67741 38.8972 6.12902C37.5786 3.87096 33.2933 3.54838 27.6895 5.16128C27.3599 5.16128 27.3599 5.16128 27.0302 4.8387C27.0302 4.51612 27.0302 4.51612 27.3599 4.19354C33.623 2.58064 38.2379 2.90322 39.5564 5.48386C41.8639 9.35483 34.9415 17.4193 24.0635 23.2258C17.4708 26.7742 10.878 29.0322 6.2631 29.0322Z" fill="#FDD000"/>
</svg>
